<?xml version="1.0" standalone="no"?>
<!DOCTYPE svg PUBLIC "-//W3C//DTD SVG 20010904//EN"
 "http://www.w3.org/TR/2001/REC-SVG-20010904/DTD/svg10.dtd">
<svg version="1.0" xmlns="http://www.w3.org/2000/svg"
 width="2000.000000pt" height="736.000000pt" viewBox="0 0 2000.000000 736.000000"
 preserveAspectRatio="xMidYMid meet">

<g transform="translate(0.000000,736.000000) scale(0.100000,-0.100000)"
fill="#000000" stroke="none">
<path d="M0 3680 l0 -3680 10000 0 10000 0 0 3680 0 3680 -5815 0 -5815 0 -62
-76 c-35 -42 -65 -81 -67 -88 -2 -6 -13 -17 -23 -24 -10 -7 -16 -17 -13 -22 3
-4 -2 -11 -11 -14 -10 -4 -13 -13 -9 -26 5 -15 3 -18 -8 -14 -8 3 -18 1 -22
-5 -3 -6 0 -11 7 -11 8 0 6 -5 -5 -11 -9 -6 -15 -14 -13 -18 3 -5 -7 -19 -22
-32 l-27 -24 23 26 c18 21 21 29 10 35 -7 4 -10 4 -6 -1 10 -10 -11 -37 -23
-30 -4 3 -6 -4 -4 -16 4 -17 -15 -41 -80 -106 -46 -46 -87 -83 -91 -83 -4 0
-17 -10 -28 -22 -137 -141 -357 -277 -561 -346 -49 -17 -146 -41 -215 -53
-117 -21 -147 -22 -460 -18 -774 10 -854 5 -1054 -58 -138 -43 -215 -86 -426
-237 -251 -180 -425 -268 -637 -322 -148 -37 -258 -47 -453 -40 -238 8 -370
38 -590 134 -216 94 -311 167 -622 474 -119 118 -245 235 -280 260 -241 171
-421 204 -845 153 -253 -31 -300 -35 -430 -35 -81 0 -158 6 -200 15 -274 61
-360 115 -605 375 -162 173 -178 188 -223 228 l-37 32 -129 0 -129 0 0 -3680z
m5470 635 l75 -75 76 76 76 76 209 -58 c115 -32 214 -61 220 -65 5 -5 35 -105
65 -223 l54 -216 -73 -72 c-39 -41 -72 -78 -72 -83 0 -5 32 -42 72 -82 l72
-72 -59 -216 c-38 -138 -65 -219 -75 -225 -8 -4 -106 -32 -218 -61 l-203 -52
-77 76 -77 77 -76 -76 -76 -76 -218 60 c-120 34 -218 62 -220 64 -1 2 -27 102
-58 223 l-57 220 75 75 74 75 -69 75 c-38 41 -69 81 -70 89 0 13 110 421 115
429 4 5 408 110 425 111 9 1 49 -33 90 -74z m5998 -196 c125 -72 233 -138 240
-147 9 -12 12 -86 12 -292 0 -206 -3 -280 -12 -292 -20 -26 -464 -278 -490
-278 -28 0 -455 243 -485 276 -23 25 -23 29 -23 294 0 265 0 269 23 294 30 33
456 276 485 276 13 0 125 -59 250 -131z m2146 -151 c60 -18 138 -99 161 -168
25 -75 23 -179 -5 -252 -26 -71 -98 -139 -165 -158 -66 -19 -164 -8 -217 23
-97 57 -133 129 -133 268 0 86 3 101 30 154 49 96 127 144 234 145 29 0 72 -5
95 -12z m-1305 -9 c63 -13 125 -57 150 -107 32 -63 45 -161 31 -238 -30 -173
-107 -224 -337 -224 l-123 0 0 290 0 290 115 0 c62 0 137 -5 164 -11z m275
-51 c10 -35 39 -146 65 -248 27 -102 51 -178 55 -170 3 8 34 119 69 245 l64
230 36 3 c34 3 36 1 46 -35 80 -290 130 -455 135 -443 3 8 29 103 56 210 28
107 56 212 61 233 9 32 13 37 40 37 24 0 29 -3 25 -17 -3 -10 -37 -133 -76
-273 -39 -140 -73 -263 -76 -273 -4 -13 -14 -17 -36 -15 l-31 3 -70 249 c-41
146 -73 243 -77 235 -5 -8 -31 -97 -59 -199 -91 -323 -78 -292 -114 -288 l-32
3 -72 260 c-96 347 -91 315 -55 315 28 0 31 -4 46 -62z m1336 -203 l0 -265
160 0 160 0 0 -25 0 -25 -190 0 -190 0 0 290 0 290 30 0 30 0 0 -265z m430 0
l0 -265 158 0 158 0 105 263 105 262 34 0 34 0 98 -250 c54 -137 105 -267 113
-287 l15 -38 -33 0 c-31 0 -33 2 -66 90 l-34 91 -130 -3 -131 -3 -34 -87 -34
-88 -209 0 -209 0 0 290 0 290 30 0 30 0 0 -265z m-7569 223 c109 -47 141
-195 62 -289 -36 -43 -80 -59 -158 -59 l-65 0 0 -85 0 -85 -70 0 -70 0 0 263
c0 145 3 267 8 271 13 14 254 0 293 -16z m327 -190 l2 -208 75 0 75 0 0 -60 0
-60 -145 0 -145 0 0 270 0 271 68 -3 67 -3 3 -207z m629 -53 c57 -143 103
-263 103 -267 0 -5 -33 -8 -73 -8 l-74 0 -12 40 -12 41 -91 -3 -91 -3 -12 -35
-12 -35 -75 -3 -76 -3 99 252 c55 138 104 260 110 271 8 16 19 18 62 16 l51
-3 103 -260z m311 -7 l2 -268 -70 0 -70 0 0 270 0 271 68 -3 67 -3 3 -267z
m422 245 c87 -39 138 -116 147 -223 8 -81 -18 -160 -68 -215 -57 -62 -103 -75
-261 -75 l-128 0 0 271 0 272 133 -5 c104 -4 142 -9 177 -25z m1200 -123 l0
-90 95 0 95 0 0 -30 0 -30 -95 0 -95 0 0 -90 c0 -89 0 -90 -25 -90 -25 0 -25
1 -25 90 l0 89 -92 3 c-92 3 -93 3 -93 28 0 25 1 25 93 28 l92 3 0 89 c0 89 0
90 25 90 25 0 25 -1 25 -90z"/>
<path d="M5238 4223 c-54 -14 -98 -29 -98 -34 0 -4 38 -48 84 -96 l85 -88 73
72 73 73 -50 50 c-27 27 -54 50 -60 49 -5 0 -54 -12 -107 -26z"/>
<path d="M5686 4201 l-49 -50 63 -70 c35 -39 68 -71 74 -71 15 0 182 168 174
175 -3 3 -43 16 -89 29 -46 12 -93 26 -104 29 -16 5 -32 -4 -69 -42z"/>
<path d="M5037 4092 c-3 -4 -17 -53 -32 -109 l-28 -102 43 -51 c23 -27 46 -50
50 -50 4 0 40 30 79 68 l71 67 -90 92 c-49 51 -91 89 -93 85z"/>
<path d="M5955 4000 l-90 -90 70 -70 70 -70 50 50 50 50 -24 92 c-13 51 -27
101 -30 110 -5 15 -24 0 -96 -72z"/>
<path d="M5472 3988 l-72 -74 70 -69 70 -70 69 70 70 70 -67 73 -67 73 -73
-73z"/>
<path d="M5235 3750 l-69 -70 69 -70 69 -70 73 72 73 72 -67 68 c-37 38 -70
68 -73 68 -3 0 -37 -31 -75 -70z"/>
<path d="M5700 3751 l-75 -70 73 -73 72 -73 72 73 73 72 -70 70 -70 70 -75
-69z"/>
<path d="M5018 3543 l-47 -48 29 -109 c16 -60 31 -110 33 -112 2 -2 43 37 92
86 l90 90 -70 70 c-38 38 -72 70 -75 70 -3 0 -27 -21 -52 -47z"/>
<path d="M5467 3522 c-37 -37 -67 -72 -67 -78 0 -5 30 -40 68 -77 l68 -67 72
73 72 72 -73 73 -73 72 -67 -68z"/>
<path d="M5928 3513 l-67 -68 88 -95 c63 -67 91 -91 95 -80 3 8 17 59 31 114
l27 98 -48 49 c-27 27 -51 49 -54 49 -3 0 -36 -30 -72 -67z"/>
<path d="M5207 3262 l-88 -88 113 -32 113 -32 50 50 50 50 -70 70 c-38 38 -72
70 -75 70 -3 0 -45 -40 -93 -88z"/>
<path d="M5695 3280 l-70 -70 51 -51 51 -51 104 27 c57 15 106 29 108 31 4 4
-161 184 -169 184 -3 0 -37 -32 -75 -70z"/>
<path d="M10998 4054 l-218 -126 0 -244 c0 -137 4 -244 9 -244 5 0 39 17 75
38 l66 37 0 153 c0 84 5 162 10 172 6 10 71 53 145 96 l135 76 0 84 c0 46 -1
84 -2 84 -2 0 -101 -57 -220 -126z"/>
<path d="M11213 3927 l-213 -122 0 -247 c0 -137 2 -248 4 -248 2 0 36 18 75
41 l71 41 0 157 c0 187 -13 166 163 266 l117 67 0 84 c0 46 -1 84 -2 84 -2 0
-99 -55 -215 -123z"/>
<path d="M11428 3799 l-208 -121 0 -249 c0 -235 1 -249 18 -240 9 6 105 61
212 124 l195 113 3 247 c1 136 -1 247 -5 247 -5 0 -101 -55 -215 -121z"/>
<path d="M13440 3915 c-46 -21 -77 -51 -103 -100 -30 -55 -32 -212 -3 -265 46
-87 109 -124 202 -118 126 8 197 97 197 248 0 150 -72 241 -197 247 -40 2 -73
-2 -96 -12z"/>
<path d="M12090 3680 l0 -240 83 0 c196 0 261 60 261 240 0 78 -4 102 -22 137
-39 76 -103 102 -244 103 l-78 0 0 -240z"/>
<path d="M14858 3777 c-26 -67 -50 -130 -54 -139 -6 -16 3 -18 100 -18 58 0
106 4 106 9 0 12 -91 254 -99 263 -4 4 -28 -48 -53 -115z"/>
<path d="M6620 3760 l0 -60 43 0 c55 0 87 22 87 60 0 38 -32 60 -87 60 l-43 0
0 -60z"/>
<path d="M7556 3697 c-10 -34 -21 -70 -23 -79 -5 -16 2 -18 47 -18 43 0 51 3
46 16 -3 8 -14 44 -23 80 -9 35 -20 64 -23 64 -3 0 -13 -28 -24 -63z"/>
<path d="M8300 3674 l0 -147 54 6 c29 3 63 11 75 19 72 45 66 214 -10 253 -15
8 -48 15 -74 15 l-45 0 0 -146z"/>
</g>
</svg>
